<svg width="238" height="97" viewBox="0 0 238 97" fill="none" xmlns="http://www.w3.org/2000/svg">
<path d="M0.0454547 1.90909H16L40.3182 44.2273H41.3182L65.6364 1.90909H81.5909L47.8182 58.4545V95H33.8182V58.4545L0.0454547 1.90909ZM94.8523 95V1.90909H153.216V14H108.898V42.3636H150.17V54.4091H108.898V82.9091H153.761V95H94.8523ZM222.75 26.3636C222.265 22.0606 220.265 18.7273 216.75 16.3636C213.235 13.9697 208.811 12.7727 203.477 12.7727C199.659 12.7727 196.356 13.3788 193.568 14.5909C190.78 15.7727 188.614 17.4091 187.068 19.5C185.553 21.5606 184.795 23.9091 184.795 26.5455C184.795 28.7576 185.311 30.6667 186.341 32.2727C187.402 33.8788 188.78 35.2273 190.477 36.3182C192.205 37.3788 194.053 38.2727 196.023 39C197.992 39.697 199.886 40.2727 201.705 40.7273L210.795 43.0909C213.765 43.8182 216.811 44.803 219.932 46.0455C223.053 47.2879 225.947 48.9242 228.614 50.9545C231.28 52.9848 233.432 55.5 235.068 58.5C236.735 61.5 237.568 65.0909 237.568 69.2727C237.568 74.5455 236.205 79.2273 233.477 83.3182C230.78 87.4091 226.856 90.6364 221.705 93C216.583 95.3636 210.386 96.5455 203.114 96.5455C196.144 96.5455 190.114 95.4394 185.023 93.2273C179.932 91.0152 175.947 87.8788 173.068 83.8182C170.189 79.7273 168.598 74.8788 168.295 69.2727H182.386C182.659 72.6364 183.75 75.4394 185.659 77.6818C187.598 79.8939 190.068 81.5455 193.068 82.6364C196.098 83.697 199.417 84.2273 203.023 84.2273C206.992 84.2273 210.523 83.6061 213.614 82.3636C216.735 81.0909 219.189 79.3333 220.977 77.0909C222.765 74.8182 223.659 72.1667 223.659 69.1364C223.659 66.3788 222.871 64.1212 221.295 62.3636C219.75 60.6061 217.644 59.1515 214.977 58C212.341 56.8485 209.356 55.8333 206.023 54.9545L195.023 51.9545C187.568 49.9242 181.659 46.9394 177.295 43C172.962 39.0606 170.795 33.8485 170.795 27.3636C170.795 22 172.25 17.3182 175.159 13.3182C178.068 9.31818 182.008 6.21212 186.977 4C191.947 1.75757 197.553 0.63636 203.795 0.63636C210.098 0.63636 215.659 1.74242 220.477 3.95454C225.326 6.16667 229.144 9.21212 231.932 13.0909C234.72 16.9394 236.174 21.3636 236.295 26.3636H222.75Z" fill="#21B321"/>
</svg>
