<svg width="832" height="261" viewBox="0 0 832 261" fill="none" xmlns="http://www.w3.org/2000/svg">
<g filter="url(#filter0_d_108_3)">
<circle cx="122.636" cy="23.7273" r="23.7273" fill="#EABA10"/>
<circle cx="122.636" cy="23.7273" r="23.2273" stroke="#EABA10"/>
</g>
<g filter="url(#filter1_d_108_3)">
<path d="M241.273 65.25C223.477 65.25 230.65 65.25 217.545 65.25C204.441 65.25 211.614 65.25 193.818 65.25C199.75 53.3864 205.682 47.4545 217.545 47.4545C229.409 47.4545 235.341 53.3864 241.273 65.25Z" fill="#EABA10"/>
<path d="M231.321 52.2938C234.794 55.0719 237.627 59.2041 240.46 64.75H227.65L217.545 64.75H217.469H217.393H217.317H217.242H217.167H217.093H217.019H216.946H216.873H216.8H216.728H216.657H216.586H216.515H216.445H216.375H216.306H216.237H216.168H216.1H216.032H215.965H215.898H215.832H215.766H215.7H215.635H215.57H215.506H215.442H215.378H215.315H215.252H215.19H215.128H215.066H215.005H214.944H214.884H214.824H214.764H214.705H214.646H214.588H214.529H214.472H214.414H214.357H214.301H214.244H214.188H214.133H214.078H214.023H213.968H213.914H213.86H213.807H213.754H213.701H213.649H213.597H213.545H213.493H213.442H213.392H213.341H213.291H213.241H213.192H213.143H213.094H213.046H212.998H212.95H212.902H212.855H212.808H212.762H212.715H212.669H212.624H212.578H212.533H212.488H212.444H212.4H212.356H212.312H212.269H212.226H212.183H212.141H212.098H212.056H212.015H211.973H211.932H211.891H211.851H211.81H211.77H211.73H211.691H211.651H211.612H211.573H211.535H211.497H211.458H211.421H211.383H211.346H211.309H211.272H211.235H211.198H211.162H211.126H211.091H211.055H211.02H210.985H210.95H210.915H210.881H210.846H210.812H210.778H210.745H210.711H210.678H210.645H210.612H210.579H210.547H210.515H210.483H210.451H210.419H210.387H210.356H210.325H210.294H210.263H210.232H210.202H210.172H210.141H210.111H210.082H210.052H210.022H209.993H209.964H209.935H209.906H209.877H209.848H209.82H209.792H209.763H209.735H209.707H209.68H209.652H209.624H209.597H209.57H209.542H209.515H209.488H209.462H209.435H209.408H209.382H209.355H209.329H209.303H209.277H209.251H209.225H209.199H209.174H209.148H209.123H209.097H209.072H209.047H209.022H208.996H208.971H208.947H208.922H208.897H208.872H208.848H208.823H208.799H208.774H208.75H208.725H208.701H208.677H208.653H208.629H208.605H208.58H208.556H208.533H208.509H208.485H208.461H208.437H208.413H208.39H208.366H208.342H208.319H208.295H208.271H208.248H208.224H208.201H208.177H208.153H208.13H208.106H208.083H208.059H208.036H208.012H207.989H207.965H207.942H207.918H207.894H207.871H207.847H207.824H207.8H207.776H207.752H207.729H207.705H207.681H207.657H207.633H207.61H207.586H207.562H207.538H207.514H207.489H207.465H207.441H207.417H207.392H207.368H207.344H207.319H207.294H207.27H207.245H207.22H207.196H207.171H207.146H207.12H207.095H207.07H207.045H207.019H206.994H206.968H206.943H206.917H206.891H206.865H206.839H206.813H206.786H206.76H206.734H206.707H206.68H206.653H206.626H206.599H206.572H206.545H206.517H206.49H206.462H206.434H206.406H206.378H206.35H206.322H206.293H206.265H206.236H206.207H206.178H206.149H206.119H206.09H206.06H206.03H206H205.97H205.94H205.909H205.878H205.848H205.817H205.785H205.754H205.722H205.691H205.659H205.627H205.594H205.562H205.529H205.496H205.463H205.43H205.397H205.363H205.329H205.295H205.261H205.226H205.192H205.157H205.121H205.086H205.051H205.015H204.979H204.943H204.906H204.869H204.832H204.795H204.758H204.72H204.682H204.644H204.606H204.567H204.529H204.489H204.45H204.41H204.371H204.33H204.29H204.249H204.209H204.167H204.126H204.084H204.042H204H203.957H203.915H203.872H203.828H203.785H203.741H203.696H203.652H203.607H203.562H203.517H203.471H203.425H203.379H203.332H203.285H203.238H203.19H203.142H203.094H203.046H202.997H202.948H202.898H202.849H202.799H202.748H202.697H202.646H202.595H202.543H202.491H202.439H202.386H202.333H202.279H202.225H202.171H202.117H202.062H202.007H201.951H201.895H201.839H201.782H201.725H201.668H201.61H201.552H201.493H201.434H201.375H201.315H201.255H201.195H201.134H201.073H201.011H200.949H200.887H200.824H200.761H200.697H200.633H200.569H200.504H200.438H200.373H200.307H200.24H200.173H200.106H200.038H199.97H199.902H199.833H199.763H199.693H199.623H199.552H199.481H199.409H199.337H199.265H199.192H199.119H199.045H198.97H198.896H198.82H198.745H198.669H198.592H198.515H198.437H198.359H198.281H198.202H198.123H198.043H197.962H197.882H197.8H197.718H197.636H197.553H197.47H197.386H197.302H197.217H197.132H197.046H196.96H196.873H196.786H196.698H196.61H196.521H196.432H196.342H196.252H196.161H196.069H195.977H195.885H195.792H195.698H195.604H195.51H195.415H195.319H195.223H195.126H195.029H194.931H194.833H194.734H194.634H194.631C197.464 59.2041 200.297 55.0719 203.77 52.2938C207.374 49.4106 211.707 47.9545 217.545 47.9545C223.384 47.9545 227.717 49.4106 231.321 52.2938Z" stroke="#EABA10"/>
</g>
<path d="M193.818 195.75C211.614 195.75 204.441 195.75 217.545 195.75C230.65 195.75 223.477 195.75 241.273 195.75C235.341 207.614 229.409 213.545 217.545 213.545C205.682 213.545 199.75 207.614 193.818 195.75Z" fill="#1277DF"/>
<g filter="url(#filter2_d_108_3)">
<circle cx="27.7273" cy="71.1818" r="23.7273" fill="#EABA10"/>
<circle cx="27.7273" cy="71.1818" r="23.2273" stroke="#EABA10"/>
</g>
<circle cx="27.7273" cy="189.818" r="23.7273" fill="#1277DF"/>
<circle cx="122.636" cy="237.273" r="23.7273" fill="#1277DF"/>
<path d="M95.4434 94.7969V173H85.0771V94.7969H95.4434ZM128.207 129.978V138.464H93.1875V129.978H128.207ZM133.524 94.7969V103.283H93.1875V94.7969H133.524ZM156.996 94.7969V173H146.63V94.7969H156.996ZM236.005 94.7969V173H225.585L186.215 112.683V173H175.849V94.7969H186.215L225.746 155.275V94.7969H236.005ZM275.536 173H259.208L259.315 164.567H275.536C281.122 164.567 285.777 163.404 289.501 161.076C293.225 158.713 296.018 155.419 297.88 151.193C299.778 146.932 300.727 141.955 300.727 136.262V131.481C300.727 127.006 300.189 123.031 299.115 119.558C298.041 116.049 296.465 113.094 294.389 110.695C292.312 108.26 289.77 106.416 286.762 105.163C283.79 103.91 280.37 103.283 276.503 103.283H258.886V94.7969H276.503C281.623 94.7969 286.296 95.6562 290.521 97.375C294.747 99.0579 298.381 101.511 301.425 104.733C304.504 107.92 306.868 111.787 308.515 116.335C310.162 120.847 310.985 125.931 310.985 131.589V136.262C310.985 141.919 310.162 147.022 308.515 151.569C306.868 156.081 304.486 159.93 301.371 163.117C298.292 166.304 294.568 168.757 290.199 170.476C285.867 172.159 280.979 173 275.536 173ZM264.74 94.7969V173H254.374V94.7969H264.74ZM364.965 94.7969V173H354.599V94.7969H364.965ZM411.103 94.7969V173H400.897V94.7969H411.103ZM436.239 94.7969V103.283H375.814V94.7969H436.239ZM483.344 94.7969V173H472.978V94.7969H483.344ZM516.107 129.978V138.464H481.088V129.978H516.107ZM521.425 94.7969V103.283H481.088V94.7969H521.425ZM544.896 94.7969V173H534.53V94.7969H544.896ZM623.905 94.7969V173H613.485L574.115 112.683V173H563.749V94.7969H574.115L613.646 155.275V94.7969H623.905ZM663.437 173H647.108L647.216 164.567H663.437C669.022 164.567 673.677 163.404 677.401 161.076C681.125 158.713 683.918 155.419 685.78 151.193C687.678 146.932 688.627 141.955 688.627 136.262V131.481C688.627 127.006 688.09 123.031 687.016 119.558C685.941 116.049 684.366 113.094 682.289 110.695C680.212 108.26 677.67 106.416 674.662 105.163C671.69 103.91 668.271 103.283 664.403 103.283H646.786V94.7969H664.403C669.524 94.7969 674.197 95.6562 678.422 97.375C682.647 99.0579 686.282 101.511 689.325 104.733C692.405 107.92 694.768 111.787 696.415 116.335C698.062 120.847 698.886 125.931 698.886 131.589V136.262C698.886 141.919 698.062 147.022 696.415 151.569C694.768 156.081 692.387 159.93 689.271 163.117C686.192 166.304 682.468 168.757 678.1 170.476C673.767 172.159 668.879 173 663.437 173ZM652.641 94.7969V173H642.274V94.7969H652.641Z" fill="white"/>
<path d="M95.4434 94.7969H96.4434V93.7969H95.4434V94.7969ZM95.4434 173V174H96.4434V173H95.4434ZM85.0771 173H84.0771V174H85.0771V173ZM85.0771 94.7969V93.7969H84.0771V94.7969H85.0771ZM128.207 129.978H129.207V128.978H128.207V129.978ZM128.207 138.464V139.464H129.207V138.464H128.207ZM93.1875 138.464H92.1875V139.464H93.1875V138.464ZM93.1875 129.978V128.978H92.1875V129.978H93.1875ZM133.524 94.7969H134.524V93.7969H133.524V94.7969ZM133.524 103.283V104.283H134.524V103.283H133.524ZM93.1875 103.283H92.1875V104.283H93.1875V103.283ZM93.1875 94.7969V93.7969H92.1875V94.7969H93.1875ZM94.4434 94.7969V173H96.4434V94.7969H94.4434ZM95.4434 172H85.0771V174H95.4434V172ZM86.0771 173V94.7969H84.0771V173H86.0771ZM85.0771 95.7969H95.4434V93.7969H85.0771V95.7969ZM127.207 129.978V138.464H129.207V129.978H127.207ZM128.207 137.464H93.1875V139.464H128.207V137.464ZM94.1875 138.464V129.978H92.1875V138.464H94.1875ZM93.1875 130.978H128.207V128.978H93.1875V130.978ZM132.524 94.7969V103.283H134.524V94.7969H132.524ZM133.524 102.283H93.1875V104.283H133.524V102.283ZM94.1875 103.283V94.7969H92.1875V103.283H94.1875ZM93.1875 95.7969H133.524V93.7969H93.1875V95.7969ZM156.996 94.7969H157.996V93.7969H156.996V94.7969ZM156.996 173V174H157.996V173H156.996ZM146.63 173H145.63V174H146.63V173ZM146.63 94.7969V93.7969H145.63V94.7969H146.63ZM155.996 94.7969V173H157.996V94.7969H155.996ZM156.996 172H146.63V174H156.996V172ZM147.63 173V94.7969H145.63V173H147.63ZM146.63 95.7969H156.996V93.7969H146.63V95.7969ZM236.005 94.7969H237.005V93.7969H236.005V94.7969ZM236.005 173V174H237.005V173H236.005ZM225.585 173L224.748 173.547L225.044 174H225.585V173ZM186.215 112.683L187.052 112.136L185.215 109.321V112.683H186.215ZM186.215 173V174H187.215V173H186.215ZM175.849 173H174.849V174H175.849V173ZM175.849 94.7969V93.7969H174.849V94.7969H175.849ZM186.215 94.7969L187.052 94.2497L186.756 93.7969H186.215V94.7969ZM225.746 155.275L224.909 155.823L226.746 158.633V155.275H225.746ZM225.746 94.7969V93.7969H224.746V94.7969H225.746ZM235.005 94.7969V173H237.005V94.7969H235.005ZM236.005 172H225.585V174H236.005V172ZM226.422 172.453L187.052 112.136L185.377 113.229L224.748 173.547L226.422 172.453ZM185.215 112.683V173H187.215V112.683H185.215ZM186.215 172H175.849V174H186.215V172ZM176.849 173V94.7969H174.849V173H176.849ZM175.849 95.7969H186.215V93.7969H175.849V95.7969ZM185.378 95.344L224.909 155.823L226.583 154.728L187.052 94.2497L185.378 95.344ZM226.746 155.275V94.7969H224.746V155.275H226.746ZM225.746 95.7969H236.005V93.7969H225.746V95.7969ZM259.208 173L258.208 172.987L258.195 174H259.208V173ZM259.315 164.567V163.567H258.328L258.316 164.555L259.315 164.567ZM289.501 161.076L290.031 161.924L290.037 161.921L289.501 161.076ZM297.88 151.193L296.966 150.787L296.965 150.79L297.88 151.193ZM299.115 119.558L298.159 119.85L298.16 119.853L299.115 119.558ZM294.389 110.695L293.628 111.344L293.633 111.35L294.389 110.695ZM286.762 105.163L286.373 106.085L286.377 106.086L286.762 105.163ZM258.886 103.283H257.886V104.283H258.886V103.283ZM258.886 94.7969V93.7969H257.886V94.7969H258.886ZM290.521 97.375L290.145 98.3013L290.151 98.304L290.521 97.375ZM301.425 104.733L300.698 105.42L300.706 105.428L301.425 104.733ZM308.515 116.335L307.574 116.676L307.575 116.678L308.515 116.335ZM308.515 151.569L309.454 151.912L309.455 151.91L308.515 151.569ZM301.371 163.117L300.656 162.418L300.652 162.422L301.371 163.117ZM290.199 170.476L290.561 171.408L290.565 171.406L290.199 170.476ZM264.74 94.7969H265.74V93.7969H264.74V94.7969ZM264.74 173V174H265.74V173H264.74ZM254.374 173H253.374V174H254.374V173ZM254.374 94.7969V93.7969H253.374V94.7969H254.374ZM275.536 172H259.208V174H275.536V172ZM260.208 173.013L260.315 164.58L258.316 164.555L258.208 172.987L260.208 173.013ZM259.315 165.567H275.536V163.567H259.315V165.567ZM275.536 165.567C281.259 165.567 286.11 164.375 290.031 161.924L288.971 160.228C285.444 162.433 280.985 163.567 275.536 163.567V165.567ZM290.037 161.921C293.936 159.446 296.857 155.994 298.795 151.597L296.965 150.79C295.179 154.843 292.514 157.98 288.965 160.232L290.037 161.921ZM298.793 151.6C300.759 147.186 301.727 142.065 301.727 136.262H299.727C299.727 141.845 298.796 146.678 296.966 150.787L298.793 151.6ZM301.727 136.262V131.481H299.727V136.262H301.727ZM301.727 131.481C301.727 126.928 301.18 122.85 300.071 119.262L298.16 119.853C299.199 123.212 299.727 127.084 299.727 131.481H301.727ZM300.071 119.265C298.963 115.643 297.326 112.56 295.145 110.041L293.633 111.35C295.605 113.628 297.119 116.454 298.159 119.85L300.071 119.265ZM295.15 110.046C292.969 107.49 290.297 105.553 287.146 104.24L286.377 106.086C289.242 107.28 291.655 109.031 293.628 111.344L295.15 110.046ZM287.15 104.242C284.033 102.927 280.478 102.283 276.503 102.283V104.283C280.263 104.283 283.546 104.892 286.373 106.085L287.15 104.242ZM276.503 102.283H258.886V104.283H276.503V102.283ZM259.886 103.283V94.7969H257.886V103.283H259.886ZM258.886 95.7969H276.503V93.7969H258.886V95.7969ZM276.503 95.7969C281.51 95.7969 286.053 96.6368 290.145 98.3013L290.898 96.4487C286.54 94.6757 281.737 93.7969 276.503 93.7969V95.7969ZM290.151 98.304C294.245 99.9345 297.757 102.306 300.698 105.42L302.152 104.047C299.006 100.716 295.248 98.1813 290.892 96.446L290.151 98.304ZM300.706 105.428C303.679 108.505 305.971 112.248 307.574 116.676L309.455 115.994C307.764 111.327 305.33 107.336 302.144 104.039L300.706 105.428ZM307.575 116.678C309.176 121.062 309.985 126.028 309.985 131.589H311.985C311.985 125.835 311.148 120.631 309.454 115.992L307.575 116.678ZM309.985 131.589V136.262H311.985V131.589H309.985ZM309.985 136.262C309.985 141.822 309.176 146.807 307.574 151.229L309.455 151.91C311.148 147.236 311.985 142.016 311.985 136.262H309.985ZM307.575 151.226C305.973 155.615 303.665 159.34 300.656 162.418L302.086 163.816C305.308 160.52 307.762 156.547 309.454 151.912L307.575 151.226ZM300.652 162.422C297.678 165.5 294.076 167.875 289.833 169.545L290.565 171.406C295.059 169.638 298.905 167.108 302.09 163.812L300.652 162.422ZM289.837 169.543C285.638 171.175 280.876 172 275.536 172V174C281.082 174 286.095 173.142 290.561 171.408L289.837 169.543ZM263.74 94.7969V173H265.74V94.7969H263.74ZM264.74 172H254.374V174H264.74V172ZM255.374 173V94.7969H253.374V173H255.374ZM254.374 95.7969H264.74V93.7969H254.374V95.7969ZM364.965 94.7969H365.965V93.7969H364.965V94.7969ZM364.965 173V174H365.965V173H364.965ZM354.599 173H353.599V174H354.599V173ZM354.599 94.7969V93.7969H353.599V94.7969H354.599ZM363.965 94.7969V173H365.965V94.7969H363.965ZM364.965 172H354.599V174H364.965V172ZM355.599 173V94.7969H353.599V173H355.599ZM354.599 95.7969H364.965V93.7969H354.599V95.7969ZM411.103 94.7969H412.103V93.7969H411.103V94.7969ZM411.103 173V174H412.103V173H411.103ZM400.897 173H399.897V174H400.897V173ZM400.897 94.7969V93.7969H399.897V94.7969H400.897ZM436.239 94.7969H437.239V93.7969H436.239V94.7969ZM436.239 103.283V104.283H437.239V103.283H436.239ZM375.814 103.283H374.814V104.283H375.814V103.283ZM375.814 94.7969V93.7969H374.814V94.7969H375.814ZM410.103 94.7969V173H412.103V94.7969H410.103ZM411.103 172H400.897V174H411.103V172ZM401.897 173V94.7969H399.897V173H401.897ZM400.897 95.7969H411.103V93.7969H400.897V95.7969ZM435.239 94.7969V103.283H437.239V94.7969H435.239ZM436.239 102.283H375.814V104.283H436.239V102.283ZM376.814 103.283V94.7969H374.814V103.283H376.814ZM375.814 95.7969H436.239V93.7969H375.814V95.7969ZM483.344 94.7969H484.344V93.7969H483.344V94.7969ZM483.344 173V174H484.344V173H483.344ZM472.978 173H471.978V174H472.978V173ZM472.978 94.7969V93.7969H471.978V94.7969H472.978ZM516.107 129.978H517.107V128.978H516.107V129.978ZM516.107 138.464V139.464H517.107V138.464H516.107ZM481.088 138.464H480.088V139.464H481.088V138.464ZM481.088 129.978V128.978H480.088V129.978H481.088ZM521.425 94.7969H522.425V93.7969H521.425V94.7969ZM521.425 103.283V104.283H522.425V103.283H521.425ZM481.088 103.283H480.088V104.283H481.088V103.283ZM481.088 94.7969V93.7969H480.088V94.7969H481.088ZM482.344 94.7969V173H484.344V94.7969H482.344ZM483.344 172H472.978V174H483.344V172ZM473.978 173V94.7969H471.978V173H473.978ZM472.978 95.7969H483.344V93.7969H472.978V95.7969ZM515.107 129.978V138.464H517.107V129.978H515.107ZM516.107 137.464H481.088V139.464H516.107V137.464ZM482.088 138.464V129.978H480.088V138.464H482.088ZM481.088 130.978H516.107V128.978H481.088V130.978ZM520.425 94.7969V103.283H522.425V94.7969H520.425ZM521.425 102.283H481.088V104.283H521.425V102.283ZM482.088 103.283V94.7969H480.088V103.283H482.088ZM481.088 95.7969H521.425V93.7969H481.088V95.7969ZM544.896 94.7969H545.896V93.7969H544.896V94.7969ZM544.896 173V174H545.896V173H544.896ZM534.53 173H533.53V174H534.53V173ZM534.53 94.7969V93.7969H533.53V94.7969H534.53ZM543.896 94.7969V173H545.896V94.7969H543.896ZM544.896 172H534.53V174H544.896V172ZM535.53 173V94.7969H533.53V173H535.53ZM534.53 95.7969H544.896V93.7969H534.53V95.7969ZM623.905 94.7969H624.905V93.7969H623.905V94.7969ZM623.905 173V174H624.905V173H623.905ZM613.485 173L612.648 173.547L612.944 174H613.485V173ZM574.115 112.683L574.953 112.136L573.115 109.321V112.683H574.115ZM574.115 173V174H575.115V173H574.115ZM563.749 173H562.749V174H563.749V173ZM563.749 94.7969V93.7969H562.749V94.7969H563.749ZM574.115 94.7969L574.952 94.2497L574.656 93.7969H574.115V94.7969ZM613.646 155.275L612.809 155.823L614.646 158.633V155.275H613.646ZM613.646 94.7969V93.7969H612.646V94.7969H613.646ZM622.905 94.7969V173H624.905V94.7969H622.905ZM623.905 172H613.485V174H623.905V172ZM614.323 172.453L574.953 112.136L573.278 113.229L612.648 173.547L614.323 172.453ZM573.115 112.683V173H575.115V112.683H573.115ZM574.115 172H563.749V174H574.115V172ZM564.749 173V94.7969H562.749V173H564.749ZM563.749 95.7969H574.115V93.7969H563.749V95.7969ZM573.278 95.344L612.809 155.823L614.484 154.728L574.952 94.2497L573.278 95.344ZM614.646 155.275V94.7969H612.646V155.275H614.646ZM613.646 95.7969H623.905V93.7969H613.646V95.7969ZM647.108 173L646.108 172.987L646.096 174H647.108V173ZM647.216 164.567V163.567H646.228L646.216 164.555L647.216 164.567ZM677.401 161.076L677.931 161.924L677.937 161.921L677.401 161.076ZM685.78 151.193L684.867 150.787L684.865 150.79L685.78 151.193ZM687.016 119.558L686.059 119.85L686.06 119.853L687.016 119.558ZM682.289 110.695L681.528 111.344L681.533 111.35L682.289 110.695ZM674.662 105.163L674.274 106.085L674.277 106.086L674.662 105.163ZM646.786 103.283H645.786V104.283H646.786V103.283ZM646.786 94.7969V93.7969H645.786V94.7969H646.786ZM678.422 97.375L678.045 98.3013L678.052 98.304L678.422 97.375ZM689.325 104.733L688.598 105.42L688.606 105.428L689.325 104.733ZM696.415 116.335L695.475 116.676L695.476 116.678L696.415 116.335ZM696.415 151.569L697.354 151.912L697.355 151.91L696.415 151.569ZM689.271 163.117L688.556 162.418L688.552 162.422L689.271 163.117ZM678.1 170.476L678.462 171.408L678.466 171.406L678.1 170.476ZM652.641 94.7969H653.641V93.7969H652.641V94.7969ZM652.641 173V174H653.641V173H652.641ZM642.274 173H641.274V174H642.274V173ZM642.274 94.7969V93.7969H641.274V94.7969H642.274ZM663.437 172H647.108V174H663.437V172ZM648.108 173.013L648.216 164.58L646.216 164.555L646.108 172.987L648.108 173.013ZM647.216 165.567H663.437V163.567H647.216V165.567ZM663.437 165.567C669.159 165.567 674.011 164.375 677.931 161.924L676.871 160.228C673.344 162.433 668.885 163.567 663.437 163.567V165.567ZM677.937 161.921C681.837 159.446 684.757 155.994 686.695 151.597L684.865 150.79C683.079 154.843 680.414 157.98 676.866 160.232L677.937 161.921ZM686.694 151.6C688.66 147.186 689.627 142.065 689.627 136.262H687.627C687.627 141.845 686.696 146.678 684.867 150.787L686.694 151.6ZM689.627 136.262V131.481H687.627V136.262H689.627ZM689.627 131.481C689.627 126.928 689.081 122.85 687.971 119.262L686.06 119.853C687.099 123.212 687.627 127.084 687.627 131.481H689.627ZM687.972 119.265C686.863 115.643 685.226 112.56 683.045 110.041L681.533 111.35C683.505 113.628 685.02 116.454 686.059 119.85L687.972 119.265ZM683.05 110.046C680.869 107.49 678.197 105.553 675.047 104.24L674.277 106.086C677.143 107.28 679.555 109.031 681.528 111.344L683.05 110.046ZM675.051 104.242C671.934 102.927 668.378 102.283 664.403 102.283V104.283C668.163 104.283 671.446 104.892 674.274 106.085L675.051 104.242ZM664.403 102.283H646.786V104.283H664.403V102.283ZM647.786 103.283V94.7969H645.786V103.283H647.786ZM646.786 95.7969H664.403V93.7969H646.786V95.7969ZM664.403 95.7969C669.41 95.7969 673.953 96.6368 678.045 98.3013L678.799 96.4487C674.44 94.6757 669.637 93.7969 664.403 93.7969V95.7969ZM678.052 98.304C682.146 99.9345 685.657 102.306 688.598 105.42L690.052 104.047C686.906 100.716 683.149 98.1813 678.792 96.446L678.052 98.304ZM688.606 105.428C691.579 108.505 693.871 112.248 695.475 116.676L697.355 115.994C695.665 111.327 693.23 107.336 690.044 104.039L688.606 105.428ZM695.476 116.678C697.076 121.062 697.886 126.028 697.886 131.589H699.886C699.886 125.835 699.048 120.631 697.354 115.992L695.476 116.678ZM697.886 131.589V136.262H699.886V131.589H697.886ZM697.886 136.262C697.886 141.822 697.076 146.807 695.475 151.229L697.355 151.91C699.048 147.236 699.886 142.016 699.886 136.262H697.886ZM695.476 151.226C693.873 155.615 691.565 159.34 688.556 162.418L689.987 163.816C693.209 160.52 695.662 156.547 697.354 151.912L695.476 151.226ZM688.552 162.422C685.578 165.5 681.977 167.875 677.733 169.545L678.466 171.406C682.959 169.638 686.806 167.108 689.991 163.812L688.552 162.422ZM677.738 169.543C673.538 171.175 668.776 172 663.437 172V174C668.982 174 673.996 173.142 678.462 171.408L677.738 169.543ZM651.641 94.7969V173H653.641V94.7969H651.641ZM652.641 172H642.274V174H652.641V172ZM643.274 173V94.7969H641.274V173H643.274ZM642.274 95.7969H652.641V93.7969H642.274V95.7969Z" fill="black"/>
<defs>
<filter id="filter0_d_108_3" x="94.9091" y="0" width="55.4545" height="55.4545" filterUnits="userSpaceOnUse" color-interpolation-filters="sRGB">
<feFlood flood-opacity="0" result="BackgroundImageFix"/>
<feColorMatrix in="SourceAlpha" type="matrix" values="0 0 0 0 0 0 0 0 0 0 0 0 0 0 0 0 0 0 127 0" result="hardAlpha"/>
<feOffset dy="4"/>
<feGaussianBlur stdDeviation="2"/>
<feComposite in2="hardAlpha" operator="out"/>
<feColorMatrix type="matrix" values="0 0 0 0 0 0 0 0 0 0 0 0 0 0 0 0 0 0 0.25 0"/>
<feBlend mode="normal" in2="BackgroundImageFix" result="effect1_dropShadow_108_3"/>
<feBlend mode="normal" in="SourceGraphic" in2="effect1_dropShadow_108_3" result="shape"/>
</filter>
<filter id="filter1_d_108_3" x="189.818" y="47.4545" width="55.4545" height="25.7955" filterUnits="userSpaceOnUse" color-interpolation-filters="sRGB">
<feFlood flood-opacity="0" result="BackgroundImageFix"/>
<feColorMatrix in="SourceAlpha" type="matrix" values="0 0 0 0 0 0 0 0 0 0 0 0 0 0 0 0 0 0 127 0" result="hardAlpha"/>
<feOffset dy="4"/>
<feGaussianBlur stdDeviation="2"/>
<feComposite in2="hardAlpha" operator="out"/>
<feColorMatrix type="matrix" values="0 0 0 0 0 0 0 0 0 0 0 0 0 0 0 0 0 0 0.25 0"/>
<feBlend mode="normal" in2="BackgroundImageFix" result="effect1_dropShadow_108_3"/>
<feBlend mode="normal" in="SourceGraphic" in2="effect1_dropShadow_108_3" result="shape"/>
</filter>
<filter id="filter2_d_108_3" x="0" y="47.4545" width="55.4545" height="55.4545" filterUnits="userSpaceOnUse" color-interpolation-filters="sRGB">
<feFlood flood-opacity="0" result="BackgroundImageFix"/>
<feColorMatrix in="SourceAlpha" type="matrix" values="0 0 0 0 0 0 0 0 0 0 0 0 0 0 0 0 0 0 127 0" result="hardAlpha"/>
<feOffset dy="4"/>
<feGaussianBlur stdDeviation="2"/>
<feComposite in2="hardAlpha" operator="out"/>
<feColorMatrix type="matrix" values="0 0 0 0 0 0 0 0 0 0 0 0 0 0 0 0 0 0 0.25 0"/>
<feBlend mode="normal" in2="BackgroundImageFix" result="effect1_dropShadow_108_3"/>
<feBlend mode="normal" in="SourceGraphic" in2="effect1_dropShadow_108_3" result="shape"/>
</filter>
</defs>
</svg>
