<svg width="68" height="23" viewBox="0 0 68 23" fill="none" xmlns="http://www.w3.org/2000/svg">
<path d="M13.35 1.09C12.69 1.03 12.02 0.999999 11.34 0.999999C10.98 0.999999 10.62 1.01 10.26 1.03C9.9 1.05 9.55 1.1 9.21 1.18V1.21C9.13 2.09 9.07 3.09 9.03 4.21C9.01 5.31 8.98 6.44 8.94 7.6C8.92 8.76 8.89 9.9 8.85 11.02C8.81 12.12 8.75 13.1 8.67 13.96C8.55 13.66 8.41 13.2 8.25 12.58C8.11 11.96 7.96 11.33 7.8 10.69C7.66 10.05 7.51 9.48 7.35 8.98C7.21 8.46 7.1 8.17 7.02 8.11C7 8.13 6.99 8.15 6.99 8.17C6.99 8.19 6.98 8.22 6.96 8.26C6.74 9.16 6.52 10.05 6.3 10.93C6.1 11.79 5.87 12.67 5.61 13.57C5.39 12.71 5.25 11.74 5.19 10.66C5.13 9.58 5.1 8.48 5.1 7.36C5.1 6.24 5.1 5.13 5.1 4.03C5.1 2.93 5.06 1.94 4.98 1.06C4.62 1.04 4.24 1.02 3.84 0.999999C3.44 0.979999 3.04 0.969999 2.64 0.969999C2.3 0.969999 1.96 0.989999 1.62 1.03C1.3 1.05 0.99 1.08 0.69 1.12V1.15C0.75 4.61 1.01 8.07 1.47 11.53C1.93 14.99 2.4 18.43 2.88 21.85H2.91C3.35 21.91 3.73 21.94 4.05 21.94C4.33 21.94 4.58 21.93 4.8 21.91C5.02 21.87 5.26 21.83 5.52 21.79C5.68 21.53 5.82 21.16 5.94 20.68C6.06 20.2 6.18 19.71 6.3 19.21C6.42 18.69 6.54 18.21 6.66 17.77C6.8 17.31 6.96 16.99 7.14 16.81H7.17C7.35 17.09 7.51 17.47 7.65 17.95C7.79 18.43 7.93 18.93 8.07 19.45C8.21 19.95 8.34 20.43 8.46 20.89C8.6 21.33 8.76 21.67 8.94 21.91H9.3H10.38C10.58 21.91 10.76 21.91 10.92 21.91C11.1 21.91 11.26 21.89 11.4 21.85C11.68 18.37 12 14.91 12.36 11.47C12.74 8.03 13.08 4.58 13.38 1.12L13.35 1.09ZM67.6371 1.09C66.9771 1.03 66.3071 0.999999 65.6271 0.999999C65.2671 0.999999 64.9071 1.01 64.5471 1.03C64.1871 1.05 63.8371 1.1 63.4971 1.18V1.21C63.4171 2.09 63.3571 3.09 63.3171 4.21C63.2971 5.31 63.2671 6.44 63.2271 7.6C63.2071 8.76 63.1771 9.9 63.1371 11.02C63.0971 12.12 63.0371 13.1 62.9571 13.96C62.8371 13.66 62.6971 13.2 62.5371 12.58C62.3971 11.96 62.2471 11.33 62.0871 10.69C61.9471 10.05 61.7971 9.48 61.6371 8.98C61.4971 8.46 61.3871 8.17 61.3071 8.11C61.2871 8.13 61.2771 8.15 61.2771 8.17C61.2771 8.19 61.2671 8.22 61.2471 8.26C61.0271 9.16 60.8071 10.05 60.5871 10.93C60.3871 11.79 60.1571 12.67 59.8971 13.57C59.6771 12.71 59.5371 11.74 59.4771 10.66C59.4171 9.58 59.3871 8.48 59.3871 7.36C59.3871 6.24 59.3871 5.13 59.3871 4.03C59.3871 2.93 59.3471 1.94 59.2671 1.06C58.9071 1.04 58.5271 1.02 58.1271 0.999999C57.7271 0.979999 57.3271 0.969999 56.9271 0.969999C56.5871 0.969999 56.2471 0.989999 55.9071 1.03C55.5871 1.05 55.2771 1.08 54.9771 1.12V1.15C55.0371 4.61 55.2971 8.07 55.7571 11.53C56.2171 14.99 56.6871 18.43 57.1671 21.85H57.1971C57.6371 21.91 58.0171 21.94 58.3371 21.94C58.6171 21.94 58.8671 21.93 59.0871 21.91C59.3071 21.87 59.5471 21.83 59.8071 21.79C59.9671 21.53 60.1071 21.16 60.2271 20.68C60.3471 20.2 60.4671 19.71 60.5871 19.21C60.7071 18.69 60.8271 18.21 60.9471 17.77C61.0871 17.31 61.2471 16.99 61.4271 16.81H61.4571C61.6371 17.09 61.7971 17.47 61.9371 17.95C62.0771 18.43 62.2171 18.93 62.3571 19.45C62.4971 19.95 62.6271 20.43 62.7471 20.89C62.8871 21.33 63.0471 21.67 63.2271 21.91H63.5871H64.6671C64.8671 21.91 65.0471 21.91 65.2071 21.91C65.3871 21.91 65.5471 21.89 65.6871 21.85C65.9671 18.37 66.2871 14.91 66.6471 11.47C67.0271 8.03 67.3671 4.58 67.6671 1.12L67.6371 1.09Z" fill="#4100CC"/>
<path d="M15.2953 8.32C15.2353 8.54 15.1453 8.84 15.0253 9.22C14.9053 9.58 14.8353 9.87 14.8153 10.09C14.7553 10.47 14.7153 10.84 14.6953 11.2C14.6753 11.54 14.6653 11.89 14.6653 12.25C14.7253 12.91 14.7353 13.64 14.6953 14.44C14.6753 15.24 14.6853 16.04 14.7253 16.84C14.7653 17.62 14.8853 18.37 15.0853 19.09C15.2853 19.81 15.6553 20.41 16.1953 20.89C16.8953 21.59 17.7553 22.03 18.7753 22.21C19.3353 22.21 19.9553 22.23 20.6353 22.27C21.3153 22.33 21.9753 22.33 22.6153 22.27C23.2553 22.23 23.8453 22.11 24.3853 21.91C24.9453 21.71 25.3953 21.37 25.7353 20.89C25.9353 20.69 26.0853 20.32 26.1853 19.78C26.3053 19.24 26.3953 18.63 26.4553 17.95C26.5353 17.27 26.5853 16.56 26.6053 15.82C26.6453 15.08 26.6753 14.42 26.6953 13.84C26.6753 13.18 26.6553 12.54 26.6353 11.92C26.6153 11.28 26.5653 10.7 26.4853 10.18C26.4053 9.64 26.2853 9.17 26.1253 8.77C25.9653 8.37 25.7453 8.08 25.4653 7.9C25.0453 7.5 24.5453 7.2 23.9653 7C23.3853 6.78 22.7753 6.65 22.1353 6.61C21.7153 6.57 21.3153 6.57 20.9353 6.61C20.5753 6.63 20.1953 6.62 19.7953 6.58C19.3153 6.58 18.8353 6.61 18.3553 6.67C17.8953 6.73 17.4553 6.84 17.0353 7C16.6353 7.14 16.2753 7.32 15.9553 7.54C15.6553 7.76 15.4353 8.02 15.2953 8.32ZM19.0453 11.86C19.3053 11.54 19.6453 11.32 20.0653 11.2C20.8453 11.02 21.4753 11.09 21.9553 11.41C22.4353 11.73 22.7253 12.24 22.8253 12.94C22.9453 13.52 22.9753 14.14 22.9153 14.8C22.8753 15.44 22.8153 16.08 22.7353 16.72C22.6153 17.22 22.3853 17.55 22.0453 17.71C21.7853 17.85 21.4553 17.95 21.0553 18.01C20.6553 18.05 20.2653 18.03 19.8853 17.95C19.5253 17.85 19.2153 17.68 18.9553 17.44C18.6953 17.18 18.5753 16.82 18.5953 16.36C18.6353 15.66 18.6553 15 18.6553 14.38C18.6553 13.74 18.6953 13.1 18.7753 12.46C18.8353 12.14 18.9253 11.94 19.0453 11.86ZM28.7426 8.32C28.6826 8.54 28.5926 8.84 28.4726 9.22C28.3526 9.58 28.2826 9.87 28.2626 10.09C28.2026 10.47 28.1626 10.84 28.1426 11.2C28.1226 11.54 28.1126 11.89 28.1126 12.25C28.1726 12.91 28.1826 13.64 28.1426 14.44C28.1226 15.24 28.1326 16.04 28.1726 16.84C28.2126 17.62 28.3326 18.37 28.5326 19.09C28.7326 19.81 29.1026 20.41 29.6426 20.89C30.3426 21.59 31.2026 22.03 32.2226 22.21C32.7826 22.21 33.4026 22.23 34.0826 22.27C34.7626 22.33 35.4226 22.33 36.0626 22.27C36.7026 22.23 37.2926 22.11 37.8326 21.91C38.3926 21.71 38.8426 21.37 39.1826 20.89C39.3826 20.69 39.5326 20.32 39.6326 19.78C39.7526 19.24 39.8426 18.63 39.9026 17.95C39.9826 17.27 40.0326 16.56 40.0526 15.82C40.0926 15.08 40.1226 14.42 40.1426 13.84C40.1226 13.18 40.1026 12.54 40.0826 11.92C40.0626 11.28 40.0126 10.7 39.9326 10.18C39.8526 9.64 39.7326 9.17 39.5726 8.77C39.4126 8.37 39.1926 8.08 38.9126 7.9C38.4926 7.5 37.9926 7.2 37.4126 7C36.8326 6.78 36.2226 6.65 35.5826 6.61C35.1626 6.57 34.7626 6.57 34.3826 6.61C34.0226 6.63 33.6426 6.62 33.2426 6.58C32.7626 6.58 32.2826 6.61 31.8026 6.67C31.3426 6.73 30.9026 6.84 30.4826 7C30.0826 7.14 29.7226 7.32 29.4026 7.54C29.1026 7.76 28.8826 8.02 28.7426 8.32ZM32.4926 11.86C32.7526 11.54 33.0926 11.32 33.5126 11.2C34.2926 11.02 34.9226 11.09 35.4026 11.41C35.8826 11.73 36.1726 12.24 36.2726 12.94C36.3926 13.52 36.4226 14.14 36.3626 14.8C36.3226 15.44 36.2626 16.08 36.1826 16.72C36.0626 17.22 35.8326 17.55 35.4926 17.71C35.2326 17.85 34.9026 17.95 34.5026 18.01C34.1026 18.05 33.7126 18.03 33.3326 17.95C32.9726 17.85 32.6626 17.68 32.4026 17.44C32.1426 17.18 32.0226 16.82 32.0426 16.36C32.0826 15.66 32.1026 15 32.1026 14.38C32.1026 13.74 32.1426 13.1 32.2226 12.46C32.2826 12.14 32.3726 11.94 32.4926 11.86ZM42.1898 8.32C42.1298 8.54 42.0398 8.84 41.9198 9.22C41.7998 9.58 41.7298 9.87 41.7098 10.09C41.6498 10.47 41.6098 10.84 41.5898 11.2C41.5698 11.54 41.5598 11.89 41.5598 12.25C41.6198 12.91 41.6298 13.64 41.5898 14.44C41.5698 15.24 41.5798 16.04 41.6198 16.84C41.6598 17.62 41.7798 18.37 41.9798 19.09C42.1798 19.81 42.5498 20.41 43.0898 20.89C43.7898 21.59 44.6498 22.03 45.6698 22.21C46.2298 22.21 46.8498 22.23 47.5298 22.27C48.2098 22.33 48.8698 22.33 49.5098 22.27C50.1498 22.23 50.7398 22.11 51.2798 21.91C51.8398 21.71 52.2898 21.37 52.6298 20.89C52.8298 20.69 52.9798 20.32 53.0798 19.78C53.1998 19.24 53.2898 18.63 53.3498 17.95C53.4298 17.27 53.4798 16.56 53.4998 15.82C53.5398 15.08 53.5698 14.42 53.5898 13.84C53.5698 13.18 53.5498 12.54 53.5298 11.92C53.5098 11.28 53.4598 10.7 53.3798 10.18C53.2998 9.64 53.1798 9.17 53.0198 8.77C52.8598 8.37 52.6398 8.08 52.3598 7.9C51.9398 7.5 51.4398 7.2 50.8598 7C50.2798 6.78 49.6698 6.65 49.0298 6.61C48.6098 6.57 48.2098 6.57 47.8298 6.61C47.4698 6.63 47.0898 6.62 46.6898 6.58C46.2098 6.58 45.7298 6.61 45.2498 6.67C44.7898 6.73 44.3498 6.84 43.9298 7C43.5298 7.14 43.1698 7.32 42.8498 7.54C42.5498 7.76 42.3298 8.02 42.1898 8.32ZM45.9398 11.86C46.1998 11.54 46.5398 11.32 46.9598 11.2C47.7398 11.02 48.3698 11.09 48.8498 11.41C49.3298 11.73 49.6198 12.24 49.7198 12.94C49.8398 13.52 49.8698 14.14 49.8098 14.8C49.7698 15.44 49.7098 16.08 49.6298 16.72C49.5098 17.22 49.2798 17.55 48.9398 17.71C48.6798 17.85 48.3498 17.95 47.9498 18.01C47.5498 18.05 47.1598 18.03 46.7798 17.95C46.4198 17.85 46.1098 17.68 45.8498 17.44C45.5898 17.18 45.4698 16.82 45.4898 16.36C45.5298 15.66 45.5498 15 45.5498 14.38C45.5498 13.74 45.5898 13.1 45.6698 12.46C45.7298 12.14 45.8198 11.94 45.9398 11.86Z" fill="#FFCC00"/>
</svg>
