<?xml version="1.0" encoding="iso-8859-1"?>
<!-- Uploaded to: SVGRepo, www.svgrepo.com, Transformed by: SVGRepo Tools -->
<svg height="800px" width="800px" version="1.1" id="Layer_1" xmlns="http://www.w3.org/2000/svg" xmlns:xlink="http://www.w3.org/1999/xlink" 
	 viewBox="0 0 514.528 514.528" xml:space="preserve">
<g>
	<path style="fill:#414752;" d="M123.232,245.328h104.912V139.312H123.232V245.328z M155.232,171.312h40.912v42.016h-40.912V171.312
		z"/>
	<path style="fill:#414752;" d="M286.384,245.328h104.912V139.312H286.384V245.328z M318.384,171.312h40.912v42.016h-40.912V171.312
		z"/>
	<path style="fill:#414752;" d="M460.336,0H54.192C24.992,0,1.264,24.144,1.264,53.808v272.576
		c0,29.664,23.728,53.808,52.928,53.808h125.264l77.808,134.336l77.808-134.336h125.264c29.184,0,52.928-24.144,52.928-53.808
		V53.808C513.264,24.144,489.536,0,460.336,0z M481.264,326.384c0,12.032-9.392,21.808-20.928,21.808H316.64l-59.376,102.496
		l-59.376-102.48H54.192c-11.536,0-20.928-9.792-20.928-21.824V53.808C33.264,41.776,42.656,32,54.192,32h406.16
		c11.52,0,20.912,9.776,20.912,21.808V326.384z"/>
</g>
<g>
</g>
<g>
</g>
<g>
</g>
<g>
</g>
<g>
</g>
<g>
</g>
<g>
</g>
<g>
</g>
<g>
</g>
<g>
</g>
<g>
</g>
<g>
</g>
<g>
</g>
<g>
</g>
<g>
</g>
</svg>
